<?xml version="1.0" encoding="UTF-8" standalone="no"?>
<!-- Created with Inkscape (http://www.inkscape.org/) -->

<svg
   width="210mm"
   height="297mm"
   viewBox="0 0 210 297"
   version="1.1"
   id="svg20601"
   inkscape:version="1.2.1 (9c6d41e, 2022-07-14)"
   sodipodi:docname="logo.svg"
   xmlns:inkscape="http://www.inkscape.org/namespaces/inkscape"
   xmlns:sodipodi="http://sodipodi.sourceforge.net/DTD/sodipodi-0.dtd"
   xmlns="http://www.w3.org/2000/svg"
   xmlns:svg="http://www.w3.org/2000/svg">
  <sodipodi:namedview
     id="namedview20603"
     pagecolor="#505050"
     bordercolor="#eeeeee"
     borderopacity="1"
     inkscape:showpageshadow="0"
     inkscape:pageopacity="0"
     inkscape:pagecheckerboard="0"
     inkscape:deskcolor="#505050"
     inkscape:document-units="mm"
     showgrid="false"
     inkscape:zoom="7.9444086"
     inkscape:cx="-2.7692432"
     inkscape:cy="-0.31468673"
     inkscape:window-width="1923"
     inkscape:window-height="1295"
     inkscape:window-x="1813"
     inkscape:window-y="25"
     inkscape:window-maximized="0"
     inkscape:current-layer="layer1" />
  <defs
     id="defs20598" />
  <g
     inkscape:label="Layer 1"
     inkscape:groupmode="layer"
     id="layer1">
    <path
       d="m -13.764724,1.0048478 c -0.669977,0 -1.339955,0 -2.009933,0 0,2.0469209 0,4.0938417 0,6.1407626 0.669978,0 1.339956,0 2.009933,0 0,-2.0469209 0,-4.0938417 0,-6.1407626 z m -12.693609,6.1407626 c 0.670015,0 1.340031,0 2.010046,0 0,-2.0469209 0,-4.0938417 0,-6.1407626 -0.670015,0 -1.340031,0 -2.010046,0 0,2.0469209 0,4.0938417 0,6.1407626 z m 10.683676,-8.1505822 c -2.89121,0 -5.78242,0 -8.67363,0 0,0.66993988 0,1.33987968 0,2.0098196 2.891248,0 5.782496,0 8.673744,0 -7.6e-5,-0.66990191 1.47e-4,-1.34010686 -1.14e-4,-2.0098196 z m 0,0 c 0.669978,0 1.339956,0 2.009933,0 0,-2.0469209 0,-4.0938417 0,-6.1407626 -0.669977,0 -1.339955,0 -2.009933,0 0,2.0469209 0,4.0938417 0,6.1407626 z m -10.683676,0 c 0.670015,0 1.340031,0 2.010046,0 0,-2.0469209 0,-4.0938417 0,-6.1407626 -0.670015,0 -1.340031,0 -2.010046,0 0,2.0469209 0,4.0938417 0,6.1407626 z"
       id="logo-H" />
    <path
       d="M 18.671501,6.1599886 17.212073,2.4457821 h -0.726708 l 1.85404,4.5448427 -0.397108,1.0517686 c -0.172685,0.4481646 -0.259028,0.5160133 -0.465183,0.5160133 -0.235996,0 -0.468474,-0.2061557 -0.471197,-0.2087653 l -0.07398,-0.066033 -0.354901,0.5196441 0.0556,0.051057 c 0.01486,0.014069 0.380316,0.3478665 0.853329,0.3478665 0.464162,0 0.778558,-0.2280534 0.959979,-0.695733 L 20.796822,2.4457821 H 20.106308 Z M 14.547706,2.817475 C 14.182253,2.4899178 13.703114,2.3182537 13.149092,2.3182537 c -1.267455,0 -2.02491,0.9292324 -2.02491,2.4854414 0,1.5456573 0.757455,2.4688763 2.02491,2.4688763 0.559241,0 1.03838,-0.1709833 1.398614,-0.4977463 v 0.5557241 c 0,0.4527029 -0.257213,1.2190077 -1.219008,1.2190077 -0.689606,0 -1.126425,-0.3593259 -1.298202,-1.0683337 l -0.0211,-0.085435 -0.642974,0.1602047 0.01577,0.081123 c 0.188569,0.9749566 0.916071,1.5563225 1.946509,1.5563225 1.10362,0 1.905097,-0.7724315 1.905097,-1.8373614 V 2.4457821 H 14.547706 Z M 2.7014108,2.3182537 c -1.2841334,0 -2.05134575,0.9292324 -2.05134575,2.4854414 0,1.5456573 0.76721235,2.4688763 2.05134575,2.4688763 0.9873236,0 1.6689877,-0.5567452 1.9200733,-1.568803 l 0.020196,-0.084527 -0.6501224,-0.16202 -0.01838,0.088044 c -0.149767,0.7091215 -0.5891952,1.0833105 -1.2718803,1.0833105 -0.8296151,0 -1.2991101,-0.5407474 -1.3598108,-1.5668742 H 4.7605853 V 4.8036951 c 0,-1.5563225 -0.7697085,-2.4855549 -2.0592879,-2.4855549 z m -5.1789673,0 c -0.4913926,0 -0.91505,0.1372859 -1.2367073,0.3988098 v -0.271168 h -0.6859755 v 4.6988072 h 0.6860889 V 4.1219176 c 0.00874,-0.748605 0.4421513,-1.1606895 1.2196885,-1.1606895 0.7858197,0 1.2192346,0.4243381 1.2192346,1.1932524 v 2.9902222 h 0.6860889 V 4.2232369 c 0,-1.1749855 -0.7239844,-1.9049832 -1.8884181,-1.9049832 z m 11.162929,0.6428609 c 0.5582202,0 0.8392591,0.3047519 0.9379688,1.0181846 l 0.013161,0.095987 0.6728147,-0.1708698 -0.0095,-0.076699 C 10.157054,2.7144539 9.4243335,2.3172326 8.7873725,2.3172326 c -0.4279688,0 -0.7107096,0.1558932 -0.8692124,0.2818331 V 2.4458955 H 5.9857198 v 0.6437686 h 1.2463514 v 3.41127 H 5.8747565 V 7.1447027 H 9.8136127 V 6.5009341 H 7.9181601 v -2.858042 c 0,-0.1894772 0.138307,-0.6817775 0.7672124,-0.6817775 z m -18.232924,4.1835881 h 3.6833457 V 6.4577061 H -8.8182345 V 4.2505806 H -6.129247 V 3.5643782 H -8.8182345 V 1.6804985 h 2.9540287 V 0.99429608 H -9.5476649 V 7.1447027 Z M 13.17462,6.6285759 c -1.127446,0 -1.364349,-0.9926562 -1.364349,-1.8248808 0,-1.2225249 0.459737,-1.8425805 1.364349,-1.8425805 0.885097,0 1.373086,0.4756218 1.373086,1.3388208 v 1.0330477 c 0,0.8112347 -0.513517,1.2957063 -1.373086,1.2957063 z M 1.3510172,4.4178197 C 1.4278292,3.451713 1.8814398,2.9611146 2.7014108,2.9611146 c 0.8173615,0 1.2735817,0.4905984 1.3572012,1.4568186 H 1.3511306 Z M 3.5460025,-5.8227979 c -0.5514126,0 -1.039288,0.1752947 -1.3986139,0.4976329 V -5.6950426 H 1.4612997 V 0.92463201 H 2.1473886 V -1.3635035 c 0.3539933,0.3206362 0.8418687,0.49502331 1.3986139,0.49502331 1.2683625,0 2.0249098,-0.92219791 2.0249098,-2.46876291 0,-1.5563224 -0.7565473,-2.4855548 -2.0249098,-2.4855548 z m 10.4054745,4.95431771 c 0.494909,0 0.917886,-0.13478971 1.235686,-0.39109451 v 0.26333924 h 0.686996 V -5.6951561 h -0.686996 v 2.9902222 c 0,0.7689143 -0.432507,1.1935928 -1.219008,1.1935928 -0.785593,0 -1.219008,-0.4246785 -1.219008,-1.1935928 v -2.9902222 h -0.686088 v 2.9215793 c 0,1.174872 0.723076,1.90509661 1.888418,1.90509661 z M -1.9174075,-5.8227979 c -1.2843603,0 -2.0504381,0.9292324 -2.0504381,2.4855548 0,1.546565 0.7661913,2.46887637 2.0504381,2.46887637 0.98732363,0 1.66898764,-0.55674527 1.92007327,-1.56880297 l 0.02121691,-0.08362 -0.65012231,-0.1629277 -0.0192881,0.088952 c -0.14885872,0.7081 -0.58919457,1.0833102 -1.27187977,1.0833102 -0.829615,0 -1.2982023,-0.5416551 -1.3598108,-1.5677818 h 3.41909873 v -0.2580067 c 0,-1.5563224 -0.76982196,-2.4855548 -2.05928793,-2.4855542 z m 9.4771494,4.4592944 c 0.3531991,0.3206362 0.8418687,0.49502331 1.3977062,0.49502331 1.2683629,0 2.0249099,-0.92219791 2.0249099,-2.46876291 0,-1.5563224 -0.756547,-2.4855548 -2.0249099,-2.4855548 -0.5505049,0 -1.039288,0.1752947 -1.3978197,0.4976329 V -7.1457344 H 6.8727453 v 6.14949894 H 7.5597419 Z M 24.570027,-5.8227979 c -0.491506,0 -0.914255,0.1373993 -1.235799,0.3998309 v -0.2721891 h -0.686089 v 4.69892064 h 0.686089 V -4.0190205 c 0.0088,-0.7476974 0.441357,-1.1600088 1.219008,-1.1600088 0.785706,0 1.219007,0.4236573 1.219007,1.1935927 v 2.98920114 h 0.686089 V -3.9177013 c 0,-1.1749854 -0.723077,-1.9049832 -1.888305,-1.9049832 z m -4.523625,0 c -0.428083,0 -0.710823,0.1549855 -0.869326,0.2809254 v -0.1531701 h -1.932441 v 0.6437685 h 1.246238 v 3.4112701 h -1.357201 v 0.64376854 h 3.938743 V -1.640004 h -1.895339 v -2.8580421 c 0,-0.1894772 0.137399,-0.6809832 0.766191,-0.6809832 0.559355,0 0.84028,0.3040711 0.93899,1.0173903 l 0.01316,0.096781 0.672928,-0.1716641 -0.0098,-0.075791 C 21.41597,-5.4264843 20.683136,-5.8227979 20.046402,-5.8227979 Z M -5.953158,-7.1457344 V -4.57656 h -2.8650765 v -2.5691744 h -0.729317 v 6.14949894 h 0.729317 V -3.890471 h 2.8650765 v 2.894349 h 0.7373726 v -6.1496124 h -0.737486 z m 14.8850778,1.9667051 c 0.9054059,0 1.3643492,0.6200555 1.3643492,1.8417862 0,0.8331323 -0.236903,1.8257885 -1.3643492,1.8257885 -0.8595684,0 -1.3721779,-0.5071634 -1.3721779,-1.356407 v -1.0322535 c 0,-0.8129365 0.5002425,-1.2789142 1.3721779,-1.2789142 z m -5.4114456,0 c 0.9046117,0 1.3643491,0.6192613 1.3643491,1.8417862 0,1.5086696 -0.7424782,1.8257885 -1.3643491,1.8257885 -0.8595684,0 -1.3730856,-0.5071634 -1.3730856,-1.3554993 v -1.0331612 c 0,-0.8129365 0.5002425,-1.2789142 1.3730856,-1.2789142 z M -3.26678,-3.7231184 c 0.075791,-0.9661067 0.529288,-1.4559109 1.3493725,-1.4559109 0.8182691,0 1.27448934,0.4898042 1.3573147,1.4559109 z"
       id="logo-text"
       style="stroke:none" />
  </g>
</svg>
